<?xml version="1.0" encoding="UTF-8"?>
<svg version="1.1" xmlns="http://www.w3.org/2000/svg" width="1280" height="1280">
<path d="M0 0 C422.4 0 844.8 0 1280 0 C1280 422.4 1280 844.8 1280 1280 C857.6 1280 435.2 1280 0 1280 C0 857.6 0 435.2 0 0 Z " fill="#FEFEFE" transform="translate(0,0)"/>
<path d="M0 0 C1.5092124 -0.00389507 3.01842372 -0.00823139 4.52763367 -0.01298523 C7.68211427 -0.02041873 10.83648291 -0.02017761 13.9909668 -0.01489258 C18.00526513 -0.00910887 22.01910042 -0.02601608 26.03332233 -0.04923725 C29.1485811 -0.06407269 32.26373094 -0.06483295 35.37901878 -0.06172752 C36.85758568 -0.06223606 38.33615944 -0.06738445 39.81469154 -0.07753944 C51.83454246 -0.14996209 62.5824846 0.26634456 71.56640625 8.9765625 C77.87976038 16.51962616 79.66550486 24.12628782 79.63755989 33.71542358 C79.63901333 34.57653441 79.64046677 35.43764523 79.64196426 36.32485032 C79.64563353 39.23009349 79.64213352 42.1352845 79.63870239 45.04052734 C79.63985384 47.13652766 79.64144153 49.23252777 79.64342964 51.32852745 C79.64761966 57.10377253 79.64553372 62.87900117 79.64244342 68.65424633 C79.64018823 74.87653403 79.64366953 81.09881883 79.64642334 87.32110596 C79.65062099 98.81122703 79.65024598 110.30134073 79.64751187 121.79146177 C79.64499861 132.40530694 79.64433854 143.01915019 79.64553452 153.63299561 C79.6456109 154.33640431 79.64568729 155.03981302 79.64576599 155.76453714 C79.64607731 158.61973615 79.64639571 161.47493517 79.64672575 164.33013418 C79.64978634 191.12674608 79.64700876 217.92335463 79.64162885 244.71996602 C79.63688307 268.53922394 79.63730769 292.35847651 79.64208984 316.17773438 C79.64744179 342.92461288 79.64956931 369.67148842 79.64647758 396.41836739 C79.64615685 399.26843389 79.64584401 402.11850039 79.64553452 404.96856689 C79.64545544 405.67035165 79.64537636 406.3721364 79.64529489 407.09518735 C79.6441563 417.7036568 79.64548976 428.31212411 79.64801407 438.92059326 C79.65086931 450.98009231 79.65007052 463.03958366 79.64473332 475.09908247 C79.64209842 481.25641965 79.64108772 487.41374596 79.64438248 493.57108307 C79.64734973 499.20136048 79.64574538 504.83161688 79.64040492 510.46189237 C79.63928259 512.50489889 79.6398679 514.54790717 79.64228071 516.59091258 C79.64529726 519.35601369 79.64222701 522.1210417 79.63755989 524.88613892 C79.63990106 525.68949496 79.64224222 526.492851 79.64465433 527.32055116 C79.63251645 530.88960058 79.38429165 533.81048967 78.51171875 537.30078125 C39.90171875 537.30078125 1.29171875 537.30078125 -38.48828125 537.30078125 C-40.09326666 534.09081043 -39.63047843 530.59706087 -39.62529564 527.07090759 C-39.62794747 526.20546017 -39.63059929 525.34001274 -39.63333148 524.44833964 C-39.64105827 521.51624892 -39.64158494 518.58419985 -39.6421814 515.65209961 C-39.64619381 513.54147701 -39.65063166 511.43085519 -39.65546095 509.3202343 C-39.66745723 503.49505233 -39.67308197 497.66987866 -39.67764211 491.84468675 C-39.68358675 485.57180118 -39.69519951 479.2989256 -39.70593262 473.02604675 C-39.7293232 458.58017003 -39.74386875 444.13429196 -39.75616203 429.68840212 C-39.7604156 424.69061121 -39.7649813 419.69282066 -39.76974535 414.69503021 C-39.79500669 388.12800931 -39.81705735 361.5609878 -39.8294735 334.99395752 C-39.83239489 328.83662921 -39.83536239 322.67930092 -39.83837891 316.52197266 C-39.83874982 315.75699172 -39.83912072 314.99201078 -39.83950287 314.2038486 C-39.85165629 289.40564947 -39.88259563 264.60752135 -39.92430043 239.80935557 C-39.96708903 214.32027939 -39.99371472 188.83124071 -39.99894821 163.34212763 C-39.99968866 159.74176709 -40.00059934 156.14140662 -40.00160599 152.54104614 C-40.00189191 151.47816269 -40.00189191 151.47816269 -40.00218361 150.39380685 C-40.00569709 138.99051801 -40.02599473 127.58731806 -40.05240262 116.18406186 C-40.07855105 104.71989368 -40.08585885 93.25586668 -40.07530133 81.79166573 C-40.07010731 75.58083792 -40.07305022 69.37029278 -40.09776688 63.15950584 C-40.12020768 57.47317014 -40.11955922 51.787321 -40.100563 46.10097706 C-40.09775576 44.04433829 -40.10340153 41.98766688 -40.11837594 39.9310807 C-40.19964934 28.04153918 -40.1940806 18.88439588 -32.05078125 9.48828125 C-31.20515625 8.76640625 -30.35953125 8.04453125 -29.48828125 7.30078125 C-28.56015625 6.41390625 -27.63203125 5.52703125 -26.67578125 4.61328125 C-18.86928366 -1.05025622 -9.22953066 -0.00996159 0 0 Z " fill="#010101" transform="translate(335.48828125,326.69921875)"/>
<path d="M0 0 C0.69828415 -0.00671722 1.3965683 -0.01343445 2.11601257 -0.02035522 C4.41563108 -0.03929135 6.71495689 -0.04325753 9.01464844 -0.04541016 C10.62262082 -0.0518425 12.23059205 -0.05857118 13.83856201 -0.06558228 C17.20766917 -0.07754505 20.57667389 -0.08126427 23.94580078 -0.08007812 C28.24409001 -0.0798753 32.54171534 -0.10714325 36.83984756 -0.14162254 C40.16177329 -0.16396283 43.48354124 -0.16791345 46.80553436 -0.16685867 C48.3890384 -0.16920523 49.97254742 -0.17797503 51.55597687 -0.19352341 C60.02847303 -0.2689116 67.40484363 -0.24983939 74.87402344 4.29052734 C75.92589844 4.86802734 76.97777344 5.44552734 78.06152344 6.04052734 C83.6146247 10.48300835 86.90913477 15.46992412 88.87402344 22.29052734 C89.12587243 25.24392444 89.12587243 25.24392444 89.12849903 28.40728474 C89.13433122 29.61893561 89.14016342 30.83058648 89.14617234 32.07895404 C89.14253953 33.41496666 89.13871518 34.75097877 89.13471985 36.08699036 C89.1377414 37.51293741 89.14163091 38.93888285 89.14631242 40.36482543 C89.15660082 44.27886631 89.15440845 48.19281568 89.15013182 52.10686409 C89.1476661 56.32988419 89.1566769 60.55288216 89.16416931 64.77589417 C89.17692303 73.0479118 89.17870913 81.31989699 89.17636905 89.5919228 C89.17458633 96.31605836 89.17633455 103.04018408 89.18059349 109.76431847 C89.18118868 110.72118201 89.18178387 111.67804555 89.18239709 112.66390496 C89.18360884 114.60776618 89.18482298 116.55162739 89.18603947 118.49548861 C89.1969178 136.72836697 89.19475125 154.96122684 89.18865462 173.19410624 C89.18348633 189.87130629 89.19473809 206.54844791 89.21375284 223.2256364 C89.23312907 240.35121327 89.24138755 257.47676251 89.23762959 274.60235041 C89.23571708 284.21643953 89.23820994 293.83047892 89.25234413 303.4445591 C89.26425621 311.6300131 89.26566482 319.81538679 89.25355396 328.00084189 C89.24766381 332.17612517 89.24656957 336.35126153 89.25855637 340.52653503 C89.26941022 344.35168484 89.26631783 348.17656498 89.25229468 352.00170215 C89.24839551 354.03476365 89.25919899 356.06783711 89.27059156 358.10087043 C89.21533699 367.45091704 88.34305437 375.33467133 81.93652344 382.54052734 C81.2675 383.32943359 80.59847656 384.11833984 79.90917969 384.93115234 C70.46346895 392.27376404 60.29836872 393.03460699 48.77636719 392.91943359 C47.25045096 392.92026486 45.72453485 392.92273393 44.19862366 392.92674255 C41.02072785 392.92958077 37.84354455 392.91509425 34.66577148 392.88745117 C30.62221913 392.85334169 26.5799361 392.85941484 22.53632259 392.87811375 C19.39182725 392.88875441 16.24761998 392.87968295 13.10315132 392.86472893 C11.61343813 392.85960024 10.12369418 392.8599632 8.63398552 392.86627388 C-1.79967829 392.89389907 -11.83653073 392.38240301 -20.00097656 385.16552734 C-25.65587184 378.88533114 -29.2456748 371.00718271 -29.26019764 362.5797348 C-29.26465548 361.38225727 -29.26911333 360.18477973 -29.27370626 358.951015 C-29.27361696 357.61541461 -29.2734271 356.27981423 -29.27314758 354.94421387 C-29.27644632 353.53053197 -29.28017191 352.11685101 -29.28428906 350.70317125 C-29.29431642 346.80904324 -29.29802705 342.91493063 -29.30067837 339.02079153 C-29.30457935 334.82426898 -29.31415796 330.62775865 -29.32289124 326.4312439 C-29.34266349 316.29071585 -29.3527237 306.15018678 -29.36161903 296.00964427 C-29.36600146 291.23429852 -29.37136846 286.45895388 -29.37660789 281.68360901 C-29.39362241 265.80840027 -29.40811586 249.93319223 -29.41535664 234.05797577 C-29.41726654 229.93725076 -29.41918687 225.81652576 -29.42114258 221.69580078 C-29.42162632 220.67161122 -29.42211006 219.64742166 -29.42260846 218.59219605 C-29.430906 202.00667654 -29.45623728 185.42122922 -29.48872326 168.83574122 C-29.52180453 151.80743481 -29.53980644 134.77916507 -29.54300088 117.75082636 C-29.54516519 108.19025861 -29.55390216 98.62979607 -29.57946205 89.06925964 C-29.6011838 80.92550298 -29.60921229 72.78187707 -29.59949527 64.63809472 C-29.59495458 60.4848124 -29.59682313 56.33179977 -29.61625671 52.17855453 C-29.63391833 48.37100832 -29.63286672 44.56392794 -29.61735942 40.75637656 C-29.6138704 38.73755892 -29.62998737 36.71873622 -29.64696389 34.69998693 C-29.58410262 25.77476518 -28.382205 17.24492188 -22.87597656 9.91552734 C-16.20036489 3.54335257 -9.29326689 0.05629173 0 0 Z " fill="#000000" transform="translate(177.1259765625,409.70947265625)"/>
<path d="M0 0 C4.4081991 3.773303 6.94655431 7.00772209 10.26171875 11.98046875 C10.59171875 4.06046875 10.92171875 -3.85953125 11.26171875 -12.01953125 C16.87171875 -12.01953125 22.48171875 -12.01953125 28.26171875 -12.01953125 C28.33147637 4.24559327 28.38486046 20.51065507 28.41715527 36.77589321 C28.43255581 44.32989567 28.45351316 51.88380287 28.48803711 59.43774414 C28.5181501 66.0297565 28.5373431 72.62169979 28.54398423 79.21377903 C28.54785986 82.69699832 28.55682149 86.18002023 28.57890892 89.66317558 C28.70007554 109.63533239 28.04436179 125.30212545 20.26171875 143.98046875 C29.83171875 143.98046875 39.40171875 143.98046875 49.26171875 143.98046875 C49.26171875 200.08046875 49.26171875 256.18046875 49.26171875 313.98046875 C35.07171875 313.98046875 20.88171875 313.98046875 6.26171875 313.98046875 C6.26171875 263.16046875 6.26171875 212.34046875 6.26171875 159.98046875 C2.63171875 161.96046875 -0.99828125 163.94046875 -4.73828125 165.98046875 C-26.53167107 175.14359856 -56.47964217 173.72346368 -78.42578125 165.29296875 C-85.57910333 162.25661182 -92.50138982 158.65024918 -98.73828125 153.98046875 C-98.73828125 153.32046875 -98.73828125 152.66046875 -98.73828125 151.98046875 C-99.39828125 151.98046875 -100.05828125 151.98046875 -100.73828125 151.98046875 C-99.41272315 148.3577056 -97.7948117 145.34541527 -95.61328125 142.16796875 C-95.07445312 141.37777344 -94.535625 140.58757812 -93.98046875 139.7734375 C-93.57054687 139.18175781 -93.160625 138.59007812 -92.73828125 137.98046875 C-89.32728315 138.60697861 -87.11571789 139.92263238 -84.30078125 141.91796875 C-81.20572522 144.10873015 -78.3051649 145.67827313 -74.73828125 146.98046875 C-74.73828125 147.64046875 -74.73828125 148.30046875 -74.73828125 148.98046875 C-73.77921875 149.13515625 -73.77921875 149.13515625 -72.80078125 149.29296875 C-69.51649113 150.03025837 -66.46587476 151.09596098 -63.3125 152.26171875 C-55.65849864 154.39879956 -47.74486203 154.16346499 -39.86328125 154.16796875 C-38.74308594 154.18021484 -37.62289062 154.19246094 -36.46875 154.20507812 C-23.40815404 154.22793798 -11.22054254 152.02467443 -1.33203125 142.8125 C11.00573652 128.63011498 9.70835244 109.55493185 9.26171875 91.98046875 C8.46121094 92.94146484 8.46121094 92.94146484 7.64453125 93.921875 C-3.68679639 107.07640934 -16.41103104 114.08023299 -33.73828125 115.98046875 C-54.34538185 117.44973635 -72.52349631 113.4010642 -88.68359375 100.015625 C-95.68877113 93.07703676 -100.74516546 84.92627311 -104.73828125 75.98046875 C-105.09317627 75.23998291 -105.44807129 74.49949707 -105.8137207 73.73657227 C-108.81005114 67.05386024 -109.2892119 61.30705286 -109.11328125 54.04296875 C-109.11199219 53.03556641 -109.11070312 52.02816406 -109.109375 50.99023438 C-108.88629765 31.71882955 -102.55306341 16.37957883 -88.73828125 2.79296875 C-64.46862925 -18.48964916 -25.73754206 -18.98189621 0 0 Z " fill="#040404" transform="translate(1034.73828125,466.01953125)"/>
<path d="M0 0 C2.29640133 1.14851186 2.29640133 1.14851186 5.20703125 2.05078125 C4.60046529 5.7701637 3.52829053 8.78686881 1.89453125 12.17578125 C0.10007567 16.00189056 -1.46976981 19.80864858 -2.85546875 23.80078125 C-4.41542099 28.23868621 -6.31023223 32.06066899 -8.79296875 36.05078125 C-11.8398824 35.35834062 -14.66088454 34.38383154 -17.56640625 33.23828125 C-18.92765625 32.70847656 -18.92765625 32.70847656 -20.31640625 32.16796875 C-22.21067686 31.42582985 -24.10391726 30.68105574 -25.99609375 29.93359375 C-27.36121094 29.40378906 -27.36121094 29.40378906 -28.75390625 28.86328125 C-29.57681152 28.53972656 -30.3997168 28.21617187 -31.24755859 27.8828125 C-38.38860371 25.54858252 -45.7369206 25.79808046 -53.16796875 25.73828125 C-54.95847656 25.69477539 -54.95847656 25.69477539 -56.78515625 25.65039062 C-64.02295859 25.5983489 -68.591409 26.2987636 -74.79296875 30.05078125 C-75.45296875 30.05078125 -76.11296875 30.05078125 -76.79296875 30.05078125 C-78.76151244 34.79844545 -79.15356961 38.06191144 -77.79296875 43.05078125 C-73.40120106 49.31054063 -66.55965586 50.25019088 -59.48046875 52.11328125 C-58.22113525 52.45834717 -56.96180176 52.80341309 -55.66430664 53.15893555 C-45.77593831 55.85044032 -35.8519545 58.47795684 -25.84765625 60.70703125 C-18.11417061 62.55777995 -11.62749483 66.0848003 -4.79296875 70.05078125 C-4.79296875 70.71078125 -4.79296875 71.37078125 -4.79296875 72.05078125 C-4.23609375 72.27765625 -3.67921875 72.50453125 -3.10546875 72.73828125 C3.31794609 76.38400318 8.64138372 83.83104616 10.76708984 90.91796875 C13.49187611 104.1275874 11.8227866 117.90203695 4.78515625 129.3671875 C3.36079336 131.38503493 1.85680864 133.21408327 0.20703125 135.05078125 C-0.31632813 135.6540625 -0.8396875 136.25734375 -1.37890625 136.87890625 C-13.09126532 149.52605454 -31.10782483 155.39166348 -47.95605469 156.203125 C-76.63818529 157.0140419 -101.39733597 154.02547303 -126.79296875 140.05078125 C-126.22767122 135.58160544 -125.07075393 132.09483264 -123.10546875 128.05078125 C-121.37208141 124.44267523 -119.68272458 120.84767611 -118.203125 117.12890625 C-117.8167688 116.16984375 -117.8167688 116.16984375 -117.42260742 115.19140625 C-116.70065004 113.38265894 -115.99256611 111.56839257 -115.28515625 109.75390625 C-113.79296875 107.05078125 -113.79296875 107.05078125 -111.95703125 105.96875 C-108.79226814 106.08871394 -106.97661631 107.45012598 -104.29296875 109.11328125 C-86.99643883 118.92119992 -64.54088537 123.27702786 -44.94140625 119.26171875 C-40.95079774 117.85263596 -37.37757111 116.52853366 -34.79296875 113.05078125 C-34.21520991 110.3184782 -34.21520991 110.3184782 -34.10546875 107.36328125 C-34.03972656 106.36941406 -33.97398437 105.37554688 -33.90625 104.3515625 C-33.86886719 103.59230469 -33.83148437 102.83304688 -33.79296875 102.05078125 C-35.27796875 101.55578125 -35.27796875 101.55578125 -36.79296875 101.05078125 C-37.12296875 100.39078125 -37.45296875 99.73078125 -37.79296875 99.05078125 C-40.51629072 98.00852222 -43.197795 97.09459463 -45.98046875 96.23828125 C-47.25011475 95.84080688 -47.25011475 95.84080688 -48.54541016 95.43530273 C-54.86128726 93.51169998 -61.21565699 91.99896241 -67.66796875 90.61328125 C-105.04978188 82.47976484 -105.04978188 82.47976484 -115.79296875 69.05078125 C-124.33475844 55.52014456 -125.40282345 43.95832851 -123.79296875 28.05078125 C-122.54796355 22.75031607 -119.99752602 18.42235249 -116.79296875 14.05078125 C-116.24125 13.27089844 -115.68953125 12.49101563 -115.12109375 11.6875 C-104.10397207 -2.24128955 -86.45067778 -8.21388417 -69.49169922 -10.64013672 C-46.4235223 -13.28210451 -20.95755552 -10.14886122 0 0 Z " fill="#030303" transform="translate(548.79296875,626.94921875)"/>
<path d="M0 0 C1.18980469 -0.01224609 2.37960937 -0.02449219 3.60546875 -0.03710938 C22.18953031 -0.06791169 40.69193054 6.40290842 54.375 19.1875 C62.53025385 27.67774303 68.13536294 37.64852323 70.75 49.1875 C70.93304687 49.77273438 71.11609375 50.35796875 71.3046875 50.9609375 C74.54220449 67.14852247 70.67848836 85.2144152 61.875 98.9375 C60.85318708 100.36855285 59.81178007 101.78584492 58.75 103.1875 C58.26144531 103.85265625 57.77289062 104.5178125 57.26953125 105.203125 C46.84186904 118.28276056 30.05925562 125.94030479 13.75 128.1875 C9.64121042 128.47259969 5.55520594 128.52165067 1.4375 128.5 C0.33317627 128.49508545 -0.77114746 128.4901709 -1.90893555 128.48510742 C-9.7770693 128.37193444 -16.77084856 127.78663774 -24.25 125.1875 C-25.21035156 124.88199219 -26.17070313 124.57648438 -27.16015625 124.26171875 C-33.48770715 121.96912785 -38.7743936 118.67479928 -44.1875 114.75 C-45.12795166 114.0684082 -45.12795166 114.0684082 -46.08740234 113.37304688 C-50.11099822 110.33775959 -53.15362546 107.16406223 -56.25 103.1875 C-56.94867187 102.36765625 -57.64734375 101.5478125 -58.3671875 100.703125 C-60.46605773 97.89882536 -61.90819059 95.11686699 -63.375 91.9375 C-63.87257813 90.88046875 -64.37015625 89.8234375 -64.8828125 88.734375 C-68.24490332 80.01215081 -68.64275883 71.67619147 -68.6875 62.375 C-68.72037109 61.18068359 -68.75324219 59.98636719 -68.78710938 58.75585938 C-68.8385076 50.17235593 -67.12094815 43.81954605 -63.25 36.1875 C-62.68796875 35.03894531 -62.1259375 33.89039063 -61.546875 32.70703125 C-52.45457249 16.79550186 -38.7574526 7.35841393 -21.52734375 2.0625 C-14.25477065 0.12083567 -7.50628901 0.00401406 0 0 Z " fill="#030303" transform="translate(631.25,653.8125)"/>
<path d="M0 0 C1.92102539 -0.02416992 1.92102539 -0.02416992 3.88085938 -0.04882812 C12.05623898 -0.05299286 19.25498238 0.89682796 27.0625 3.3125 C28.27164063 3.67730469 29.48078125 4.04210937 30.7265625 4.41796875 C42.9988887 8.90271065 52.20731941 16.44298271 58.51934814 27.97389221 C64.27988513 40.4368093 64.62618064 53.78509398 64.453125 67.25390625 C64.44563872 69.00080203 64.43995713 70.74770637 64.43597412 72.49461365 C64.42090512 77.03038883 64.3817921 81.56562861 64.3371582 86.10119629 C64.28848587 91.57635183 64.27058197 97.05168921 64.24734497 102.52700043 C64.20892383 110.78920278 64.13214211 119.05023699 64.0625 127.3125 C50.5325 127.3125 37.0025 127.3125 23.0625 127.3125 C22.5675 119.8875 22.5675 119.8875 22.0625 112.3125 C21.485 113.323125 20.9075 114.33375 20.3125 115.375 C15.60658259 122.00912998 6.84376724 126.41855206 -0.9375 128.3125 C-16.6345672 129.67640676 -31.90660414 129.72148992 -45.3125 120.5625 C-46.55329145 119.51649946 -47.76111641 118.43044553 -48.9375 117.3125 C-49.64777344 116.6421875 -50.35804688 115.971875 -51.08984375 115.28125 C-59.63861611 106.50059412 -60.27305104 97.95466967 -60.23828125 86.14453125 C-59.56090703 77.51460775 -56.36445847 70.60384048 -50.15234375 64.58203125 C-34.87950748 52.38257887 -16.52529315 53.00099786 2 53.1875 C3.76236464 53.19756231 5.52473491 53.20668234 7.28710938 53.21484375 C11.54571588 53.2365712 15.80404301 53.27091663 20.0625 53.3125 C19.61731158 51.70481239 19.16228216 50.09984774 18.703125 48.49609375 C18.45079102 47.60204834 18.19845703 46.70800293 17.93847656 45.78686523 C16.17799246 40.81403736 13.08760546 38.81606058 8.5 36.5625 C-3.90994306 32.04979343 -18.79792709 33.11497143 -30.71875 38.58984375 C-32.44005066 39.44307468 -34.15028061 40.31934676 -35.84375 41.2265625 C-37.9375 42.3125 -37.9375 42.3125 -40.9375 43.3125 C-41.44539062 42.28511719 -41.95328125 41.25773438 -42.4765625 40.19921875 C-43.17152496 38.79930534 -43.86686352 37.3995786 -44.5625 36 C-44.92206787 35.27466064 -45.28163574 34.54932129 -45.65209961 33.80200195 C-48.25925175 28.57672141 -51.03723045 23.48100913 -54.00390625 18.44921875 C-54.9375 16.3125 -54.9375 16.3125 -53.9375 13.3125 C-45.37845719 7.34332937 -36.06636947 4.45397441 -25.9375 2.3125 C-25.15076904 2.13517334 -24.36403809 1.95784668 -23.5534668 1.77514648 C-15.69380148 0.14397737 -8.00794555 -0.02009018 0 0 Z " fill="#030303" transform="translate(958.9375,653.6875)"/>
<path d="M0 0 C1.60294922 -0.01836914 1.60294922 -0.01836914 3.23828125 -0.03710938 C24.05290655 -0.07504612 38.75581169 7.28568743 53.3984375 21.82421875 C55.79539052 24.47539406 57.18678177 27.05284413 58.37890625 30.37109375 C58.63873291 31.0870874 58.89855957 31.80308105 59.16625977 32.54077148 C59.35889404 33.08419189 59.55152832 33.6276123 59.75 34.1875 C48.41666667 39.85416667 37.08333333 45.52083333 25.75 51.1875 C25.50507812 50.67960938 25.26015625 50.17171875 25.0078125 49.6484375 C20.79090358 41.88350866 13.95766868 38.04517796 5.75 35.1875 C-0.47573709 34.32685053 -5.63795786 35.53641261 -11.25 38.1875 C-11.87003906 38.45433594 -12.49007812 38.72117187 -13.12890625 38.99609375 C-19.2227825 41.9574807 -21.95074596 46.8732625 -24.36328125 53.02734375 C-27.0113905 62.46487847 -25.86502722 72.5818316 -21.25 81.1875 C-17.40437194 86.91786657 -13.8518551 89.884049 -7.25 92.1875 C-4.5145102 92.51907452 -2.09828599 92.71374222 0.625 92.6875 C1.32608887 92.68105469 2.02717773 92.67460938 2.74951172 92.66796875 C8.8181855 92.45449076 13.20427338 91.23996693 17.75 87.1875 C20.52689774 84.09746272 22.89042256 80.90665488 24.75 77.1875 C29.99974243 77.72297373 34.03033157 80.40506791 38.5 83 C43.83290623 86.07771961 49.09757072 88.89306368 54.81347656 91.2019043 C56.89289091 92.26022448 58.19863663 93.46095321 59.75 95.1875 C51.88584955 109.9327821 42.16669167 119.11319826 26.52734375 125.36328125 C17.99127586 127.89648846 9.82131945 128.54469765 0.9375 128.5 C-0.21379395 128.49508545 -1.36508789 128.4901709 -2.55126953 128.48510742 C-10.53228735 128.37480987 -17.67676491 127.87756496 -25.25 125.1875 C-26.26707031 124.83558594 -27.28414062 124.48367188 -28.33203125 124.12109375 C-35.39667565 121.42853117 -41.26839143 117.77339991 -47.25 113.1875 C-48.5803125 112.2284375 -48.5803125 112.2284375 -49.9375 111.25 C-59.95929702 102.31164049 -67.98656237 89.77463253 -69.25 76.1875 C-69.38019531 75.15625 -69.51039063 74.125 -69.64453125 73.0625 C-71.55932255 54.54583687 -67.89254198 39.45518217 -57.25 24.1875 C-56.82332031 23.54941406 -56.39664063 22.91132812 -55.95703125 22.25390625 C-49.63031791 13.8247774 -37.9979024 7.79038325 -28.25 4.1875 C-27.49074219 3.90261719 -26.73148438 3.61773438 -25.94921875 3.32421875 C-17.28988922 0.2534313 -9.12515197 0.00542518 0 0 Z " fill="#030303" transform="translate(776.25,653.8125)"/>
<path d="M0 0 C0.80244141 0.67482422 0.80244141 0.67482422 1.62109375 1.36328125 C0.96690276 6.43326144 -1.23354715 10.78318902 -3.37890625 15.36328125 C-4.01828125 15.09515625 -4.65765625 14.82703125 -5.31640625 14.55078125 C-6.32703125 14.15890625 -7.33765625 13.76703125 -8.37890625 13.36328125 C-8.98734375 13.09902344 -9.59578125 12.83476562 -10.22265625 12.5625 C-18.10215112 9.46068392 -27.91065611 8.46665739 -35.87890625 11.80078125 C-40.33310475 14.48287927 -43.13394242 18.75683297 -45.37890625 23.36328125 C-46.20022858 26.81312628 -46.55044838 30.12523891 -46.6953125 33.6640625 C-46.73342041 34.54489502 -46.77152832 35.42572754 -46.81079102 36.33325195 C-46.85389404 37.43628662 -46.89699707 38.53932129 -46.94140625 39.67578125 C-47.08578125 43.20265625 -47.23015625 46.72953125 -47.37890625 50.36328125 C-32.85890625 50.36328125 -18.33890625 50.36328125 -3.37890625 50.36328125 C-3.37890625 40.46328125 -3.37890625 30.56328125 -3.37890625 20.36328125 C2.56109375 20.36328125 8.50109375 20.36328125 14.62109375 20.36328125 C14.62109375 30.26328125 14.62109375 40.16328125 14.62109375 50.36328125 C28.15109375 50.36328125 41.68109375 50.36328125 55.62109375 50.36328125 C55.62109375 55.31328125 55.62109375 60.26328125 55.62109375 65.36328125 C42.09109375 65.36328125 28.56109375 65.36328125 14.62109375 65.36328125 C14.74106155 80.27548894 14.74106155 80.27548894 14.87890625 95.1875 C14.93912364 101.27291653 14.9972846 107.3583024 15.04296875 113.44384766 C15.07994793 118.35226781 15.12634179 123.26051833 15.17915726 128.16879272 C15.19763422 130.03776055 15.21276668 131.90676464 15.22443771 133.77578735 C15.24141526 136.40148138 15.27047711 139.02679258 15.30224609 141.65234375 C15.30440628 142.41839432 15.30656647 143.18444489 15.30879211 143.97370911 C15.41321545 150.76659571 16.11625706 157.4768511 20.80859375 162.73828125 C21.35902344 163.38539063 21.90945313 164.0325 22.4765625 164.69921875 C29.05067087 169.80043945 38.75409519 169.23182462 46.62109375 168.36328125 C49.33951988 167.26702221 51.50953671 166.05933657 53.88671875 164.359375 C54.4590625 164.03066406 55.03140625 163.70195313 55.62109375 163.36328125 C59.26297233 164.57724078 59.53855368 165.45334202 61.30859375 168.73828125 C61.74558594 169.52976562 62.18257812 170.32125 62.6328125 171.13671875 C63.62109375 173.36328125 63.62109375 173.36328125 63.62109375 176.36328125 C61.77095322 177.32936448 59.91575902 178.28577195 58.05859375 179.23828125 C57.02605469 179.77195312 55.99351562 180.305625 54.9296875 180.85546875 C48.10831588 183.96414578 42.12713697 184.70361324 34.74609375 184.67578125 C33.89917969 184.69189453 33.05226563 184.70800781 32.1796875 184.72460938 C22.20163704 184.73224954 14.40341798 181.54842827 6.62109375 175.36328125 C-4.56030615 163.29913925 -3.80252873 148.3463854 -3.671875 132.94140625 C-3.66626908 130.98557869 -3.6620037 129.02974688 -3.65901184 127.07391357 C-3.64764147 121.9644374 -3.6182428 116.85522332 -3.5848999 111.74584961 C-3.54858704 105.59495458 -3.53500064 99.44397116 -3.51753998 93.29299927 C-3.4885998 83.98291184 -3.43105835 74.67339774 -3.37890625 65.36328125 C-17.56890625 65.36328125 -31.75890625 65.36328125 -46.37890625 65.36328125 C-46.37890625 104.30328125 -46.37890625 143.24328125 -46.37890625 183.36328125 C-52.31890625 183.36328125 -58.25890625 183.36328125 -64.37890625 183.36328125 C-64.37890625 144.42328125 -64.37890625 105.48328125 -64.37890625 65.36328125 C-72.29890625 65.36328125 -80.21890625 65.36328125 -88.37890625 65.36328125 C-88.37890625 60.41328125 -88.37890625 55.46328125 -88.37890625 50.36328125 C-80.45890625 50.36328125 -72.53890625 50.36328125 -64.37890625 50.36328125 C-64.4253125 48.45804687 -64.47171875 46.5528125 -64.51953125 44.58984375 C-64.5570696 42.05600535 -64.59346753 39.52214988 -64.62890625 36.98828125 C-64.66242187 35.73660156 -64.6959375 34.48492187 -64.73046875 33.1953125 C-64.85033841 21.74776031 -62.27403224 12.83867262 -54.37890625 4.36328125 C-41.15436745 -8.27744873 -15.50688997 -10.668944 0 0 Z " fill="#050505" transform="translate(677.37890625,403.63671875)"/>
<path d="M0 0 C10.8936607 10.6460775 14.02437666 23.26934793 14.22070312 37.98950195 C14.09054571 46.93183014 11.24817071 54.55633536 7.75 62.6875 C7.09 62.6875 6.43 62.6875 5.75 62.6875 C5.4715625 63.27789063 5.193125 63.86828125 4.90625 64.4765625 C-0.00653571 73.87060545 -8.55477505 78.61813801 -18.31103516 81.8840332 C-34.69827084 86.96323552 -50.15992558 85.29171476 -65.41015625 77.59765625 C-76.56806386 71.21249525 -81.6942788 60.34490814 -86.41796875 48.84375 C-89.92379871 35.54463917 -87.52244009 21.68287153 -81.25 9.6875 C-73.93713684 -2.17246396 -63.27964057 -8.39346546 -50.05078125 -11.89453125 C-31.14671509 -14.71564015 -15.49817545 -11.02754792 0 0 Z " fill="#FCFCFC" transform="translate(1031.25,481.3125)"/>
<path d="M0 0 C1.35624994 1.20383328 2.69043191 2.43304399 4 3.6875 C4.69480469 4.28304688 5.38960937 4.87859375 6.10546875 5.4921875 C15.57969932 14.05987818 20.22825438 26.32236235 21.16672325 38.92672157 C21.41779386 45.09124643 21.34481784 51.25787025 21.29296875 57.42578125 C21.28736175 59.40259985 21.28309688 61.37942266 21.28010559 63.35624695 C21.26874368 68.51667127 21.23935263 73.67683546 21.20599365 78.8371582 C21.17510449 84.11991865 21.16156028 89.40272182 21.14648438 94.68554688 C21.11447324 105.01966294 21.06177768 115.35351897 21 125.6875 C15.06 125.6875 9.12 125.6875 3 125.6875 C2.98541748 123.10437988 2.97083496 120.52125977 2.95581055 117.85986328 C2.9053365 109.29827271 2.83871907 100.73686156 2.76428509 92.17544746 C2.71967338 86.98774919 2.68039714 81.8001278 2.65356445 76.61230469 C2.62743952 71.60007806 2.58697261 66.58814871 2.53681374 61.57610703 C2.52020698 59.66972443 2.50865433 57.76329048 2.50238609 55.85684586 C2.45266987 42.11847222 1.92865632 29.92596089 -7 18.6875 C-17.70577706 9.27038129 -30.36337994 8.00258689 -44 8.6875 C-47.43997741 9.08269323 -50.67228123 9.74102926 -54 10.6875 C-54.6703125 10.85894531 -55.340625 11.03039062 -56.03125 11.20703125 C-64.67491554 13.86530141 -72.06119489 20.43343392 -76.75390625 28.05078125 C-79.25937608 33.352324 -80.62084974 39.00822995 -82 44.6875 C-82.17647568 45.25704407 -82.35295135 45.82658813 -82.53477478 46.41339111 C-83.20042178 49.66719957 -83.17834319 52.90229787 -83.20532227 56.20996094 C-83.22017166 57.3373745 -83.22017166 57.3373745 -83.23532104 58.48756409 C-83.26684466 60.96563596 -83.29165723 63.44372698 -83.31640625 65.921875 C-83.33698367 67.64252209 -83.35798036 69.3631642 -83.37937927 71.08380127 C-83.43451851 75.60797092 -83.48396367 80.13218557 -83.53222656 84.65643311 C-83.58250113 89.2749023 -83.63815609 93.8933063 -83.69335938 98.51171875 C-83.8008413 107.57025883 -83.901811 116.62885442 -84 125.6875 C-89.94 125.6875 -95.88 125.6875 -102 125.6875 C-102 81.7975 -102 37.9075 -102 -7.3125 C-96.06 -7.3125 -90.12 -7.3125 -84 -7.3125 C-83.67 -0.3825 -83.34 6.5475 -83 13.6875 C-81.9275 12.3675 -80.855 11.0475 -79.75 9.6875 C-61.67696904 -10.4818755 -22.61006842 -16.70845734 0 0 Z " fill="#050505" transform="translate(894,461.3125)"/>
<path d="M0 0 C14.52 0 29.04 0 44 0 C44 41.25 44 82.5 44 125 C29.48 125 14.96 125 0 125 C0 83.75 0 42.5 0 0 Z " fill="#040404" transform="translate(843,655)"/>
<path d="M0 0 C0.89740402 -0.00307663 1.79480804 -0.00615326 2.71940613 -0.00932312 C3.679944 -0.0021376 4.64048187 0.00504791 5.63012695 0.01245117 C6.62091751 0.01290939 7.61170807 0.01336761 8.63252258 0.01383972 C10.72296347 0.01685727 12.8134022 0.02472869 14.90380859 0.03710938 C18.11669807 0.05541018 21.32930008 0.0576187 24.54223633 0.05737305 C26.57153571 0.06228665 28.60083314 0.06811428 30.63012695 0.07495117 C31.59673752 0.076064 32.56334808 0.07717682 33.55924988 0.07832336 C34.44719742 0.08470322 35.33514496 0.09108307 36.25 0.09765625 C37.03513474 0.10146805 37.82026947 0.10527985 38.62919617 0.10920715 C40.4309082 0.24291992 40.4309082 0.24291992 41.4309082 1.24291992 C41.53137624 3.94592291 41.56707273 6.62340338 41.56030273 9.3269043 C41.56205505 10.17400467 41.56380737 11.02110504 41.56561279 11.89387512 C41.5700323 14.70816059 41.56709298 17.52238376 41.5637207 20.33666992 C41.56439371 22.2834067 41.56536372 24.23014339 41.56661987 26.17687988 C41.56809698 30.26254067 41.56594188 34.34817963 41.5612793 38.43383789 C41.555582 43.68338508 41.55886094 48.93288114 41.56485176 54.18242645 C41.56845703 58.20400379 41.56731895 62.22556891 41.56472397 66.24714661 C41.5640546 68.18333441 41.56488345 70.11952331 41.56720352 72.05570984 C41.56972949 74.75681517 41.56589025 77.45783651 41.56030273 80.15893555 C41.56232697 80.96728348 41.5643512 81.77563141 41.56643677 82.60847473 C41.54517068 88.12865745 41.54517068 88.12865745 40.4309082 89.24291992 C39.05635922 89.35127894 37.67636753 89.39192241 36.29760742 89.40405273 C34.98021072 89.41846405 34.98021072 89.41846405 33.63619995 89.4331665 C32.67900055 89.43741638 31.72180115 89.44166626 30.7355957 89.44604492 C29.75479034 89.451745 28.77398499 89.45744507 27.76345825 89.46331787 C25.68028854 89.47278748 23.59710371 89.47930959 21.51391602 89.4831543 C18.34014241 89.49281571 15.16702841 89.52380229 11.9934082 89.55541992 C9.96997455 89.56195417 7.94653626 89.56720299 5.9230957 89.57104492 C4.97804169 89.58339172 4.03298767 89.59573853 3.05929565 89.60845947 C-2.5947977 89.58954628 -6.57362151 88.95416847 -11.5690918 86.24291992 C-13.3112793 84.27026367 -13.3112793 84.27026367 -14.4440918 82.18041992 C-14.83338867 81.48819336 -15.22268555 80.7959668 -15.6237793 80.08276367 C-17.4122854 76.60182823 -17.70455926 74.50911486 -17.73022461 70.54321289 C-17.74463593 68.75027298 -17.74463593 68.75027298 -17.75933838 66.92111206 C-17.76358826 65.62223053 -17.76783813 64.323349 -17.7722168 62.98510742 C-17.77797109 61.63949584 -17.78372879 60.29388426 -17.78948975 58.94827271 C-17.8000039 56.1220054 -17.80584272 53.29576654 -17.80932617 50.46948242 C-17.81478856 46.86501579 -17.83876568 43.2609312 -17.86729813 39.65658379 C-17.88602232 36.87343287 -17.89113543 34.09037179 -17.89266205 31.30716324 C-17.8971263 29.3375332 -17.9157327 27.36795142 -17.93463135 25.39840698 C-17.89875998 10.88531003 -17.89875998 10.88531003 -13.18780518 5.73190308 C-9.06143387 2.11523905 -5.48864747 -0.00993169 0 0 Z " fill="#010101" transform="translate(76.569091796875,563.757080078125)"/>
<path d="M0 0 C5.94 0 11.88 0 18 0 C18 53.13 18 106.26 18 161 C51 161 84 161 118 161 C118 166.28 118 171.56 118 177 C79.06 177 40.12 177 0 177 C0 118.59 0 60.18 0 0 Z " fill="#030303" transform="translate(446,410)"/>
<path d="M0 0 C1.95822228 0.92894795 3.62329737 1.95138453 5.37109375 3.2265625 C6.25796875 3.7628125 7.14484375 4.2990625 8.05859375 4.8515625 C14.65180678 11.62297048 16.65272249 20.16208975 16.69238281 29.31811523 C16.58512148 35.35446423 15.22009731 39.96381981 12.37109375 45.2265625 C11.79359375 46.3196875 11.21609375 47.4128125 10.62109375 48.5390625 C7.04340476 52.81241324 2.63971288 55.47035612 -2.62890625 57.2265625 C-19.01754448 58.50265224 -19.01754448 58.50265224 -25.0234375 53.76953125 C-25.81814453 53.00576172 -25.81814453 53.00576172 -26.62890625 52.2265625 C-27.18964844 51.70707031 -27.75039063 51.18757812 -28.328125 50.65234375 C-34.97838295 43.74444869 -35.88604184 36.34082255 -36.00390625 27.1015625 C-36.0179248 26.33739014 -36.03194336 25.57321777 -36.04638672 24.78588867 C-35.98272898 17.24897569 -33.48541902 11.07928301 -28.62890625 5.2265625 C-20.66294138 -1.86330847 -10.06078934 -2.95993505 0 0 Z " fill="#FCFCFC" transform="translate(642.62890625,689.7734375)"/>
<path d="M0 0 C5.94 0 11.88 0 18 0 C18 43.89 18 87.78 18 133 C12.06 133 6.12 133 0 133 C0 89.11 0 45.22 0 0 Z " fill="#060606" transform="translate(749,454)"/>
<path d="M0 0 C5.94 0 11.88 0 18 0 C18 43.89 18 87.78 18 133 C12.06 133 6.12 133 0 133 C0 89.11 0 45.22 0 0 Z " fill="#050505" transform="translate(566,454)"/>
<path d="M0 0 C5.02119601 3.5525154 9.2546372 6.93946887 11 13 C11.78371099 20.36688333 12.42218625 28.21856764 7.67578125 34.35546875 C0.4340748 41.46213172 -7.05774819 43.88326575 -17 44.375 C-24.62492524 44.18585457 -30.96996207 40.83339002 -36.4921875 35.68359375 C-41.3435495 30.26665846 -42.688096 24.88688411 -42.37890625 17.67578125 C-41.43553287 11.01381457 -38.23445438 6.40346462 -32.96875 2.3203125 C-22.99755985 -4.36671581 -10.9486145 -5.39393406 0 0 Z " fill="#050505" transform="translate(880,598)"/>
<path d="M0 0 C1.8203125 1.46875 1.8203125 1.46875 3 3 C2.6875 5.6875 2.6875 5.6875 2 8 C2.33 8 2.66 8 3 8 C3 17.57 3 27.14 3 37 C-11.52 37 -26.04 37 -41 37 C-41 10.54285714 -41 10.54285714 -35.8125 2.6875 C-25.87663945 -6.80676675 -11.84191709 -6.26678444 0 0 Z " fill="#F8F8F8" transform="translate(671,417)"/>
<path d="M0 0 C1.00417969 0.00902344 2.00835938 0.01804687 3.04296875 0.02734375 C5.48724126 0.05062254 7.93098408 0.08331513 10.375 0.125 C10.89933124 7.11608325 11.13757699 12.6903696 6.87109375 18.50390625 C2.4517023 23.2925419 -1.81405046 24.96168226 -8.12109375 25.328125 C-10.07208984 25.35132813 -10.07208984 25.35132813 -12.0625 25.375 C-13.36058594 25.40078125 -14.65867187 25.4265625 -15.99609375 25.453125 C-19.81192878 25.10809794 -21.61857762 24.43594762 -24.625 22.125 C-27.70687184 17.81037942 -28.076994 14.33038081 -27.24609375 9.2421875 C-26.18670441 5.63093577 -24.72923391 4.21560651 -21.625 2.125 C-14.51942261 -0.04482677 -7.36372075 -0.12780824 0 0 Z " fill="#F6F6F6" transform="translate(968.625,728.875)"/>
<path d="M0 0 C3.55059973 2.37174449 5.50668001 5.0807825 6.5703125 9.21875 C6.93072036 13.79436278 6.06195143 16.46987118 3.125 20 C-0.2408743 23.51221666 -2.45036399 24.20393703 -7.3125 24.375 C-11.402177 24.33752914 -12.6404053 24.25685336 -16.0625 21.8125 C-19.2322705 17.21122024 -20.69184927 13.6501024 -20 8 C-18.20126799 4.47171798 -16.56004032 2.41336309 -13.375 0.0625 C-8.64922499 -1.42524398 -4.74603152 -1.48985456 0 0 Z " fill="#060606" transform="translate(765,400)"/>
<path d="M0 0 C3.53050621 1.24221515 5.40967318 2.33096294 7.875 5.125 C9.45756719 9.16933838 9.68659164 12.71446096 9 17 C6.91726752 21.09108165 5.24217581 23.31077324 1 25 C-3.84496025 25.67750664 -7.76404182 25.74672474 -12 23.1875 C-16.18249227 18.61289908 -16.42702157 15.65425615 -16.32421875 9.66796875 C-15.8890242 6.08678946 -14.67840008 4.37229721 -12 2 C-7.93798186 -0.70801209 -4.76491076 -0.52128938 0 0 Z " fill="#070707" transform="translate(579,399)"/>
<path d="M0 0 C0.33 0 0.66 0 1 0 C1 7.26 1 14.52 1 22 C-6.92 22 -14.84 22 -23 22 C-23 26.95 -23 31.9 -23 37 C-23.66 37 -24.32 37 -25 37 C-25.33 37.66 -25.66 38.32 -26 39 C-27 38 -27 38 -27.11352539 36.14233398 C-27.10828857 35.35157471 -27.10305176 34.56081543 -27.09765625 33.74609375 C-27.09443359 32.89208984 -27.09121094 32.03808594 -27.08789062 31.15820312 C-27.07951172 30.26037109 -27.07113281 29.36253906 -27.0625 28.4375 C-27.05798828 27.53580078 -27.05347656 26.63410156 -27.04882812 25.70507812 C-27.03700225 23.46998686 -27.0205222 21.23502563 -27 19 C-25.1875 18.375 -25.1875 18.375 -23 18 C-22.01 18.66 -21.02 19.32 -20 20 C-17.77868577 20.3650791 -17.77868577 20.3650791 -15.33203125 20.4140625 C-14.52741455 20.44967285 -13.72279785 20.4852832 -12.89379883 20.52197266 C-11.87697021 20.55597168 -10.8601416 20.5899707 -9.8125 20.625 C-6.574375 20.74875 -3.33625 20.8725 0 21 C0 14.07 0 7.14 0 0 Z " fill="#D5D5D5" transform="translate(612,432)"/>
<path d="M0 0 C1 2 1 2 0.125 5.125 C-1.02791869 9.37833518 -1.36636125 13.61734109 -1.625 18 C-1.6647998 18.66402832 -1.70459961 19.32805664 -1.74560547 20.01220703 C-1.99437683 24.67924949 -2.03129438 29.32670611 -2 34 C-2.99 33.34 -3.98 32.68 -5 32 C-5.66 32.66 -6.32 33.32 -7 34 C-7.05786668 30.20839703 -7.09355054 26.41690689 -7.125 22.625 C-7.14175781 21.54476562 -7.15851562 20.46453125 -7.17578125 19.3515625 C-7.18222656 18.3203125 -7.18867187 17.2890625 -7.1953125 16.2265625 C-7.20578613 15.27346191 -7.21625977 14.32036133 -7.22705078 13.33837891 C-7 11 -7 11 -5 9 C-4.87625 8.21625 -4.7525 7.4325 -4.625 6.625 C-3.85514548 3.39161101 -2.46770059 2.14928761 0 0 Z " fill="#DFDFDF" transform="translate(709,694)"/>
<path d="M0 0 C0 0.66 0 1.32 0 2 C-23.76 1.67 -47.52 1.34 -72 1 C-72 0.67 -72 0.34 -72 0 C-63.20308071 -0.15390143 -54.40608907 -0.30208206 -45.60895157 -0.4429636 C-41.52407811 -0.50856042 -37.43925702 -0.57612609 -33.35449219 -0.64819336 C-29.4123559 -0.71767176 -25.47016603 -0.78197564 -21.52788544 -0.84269524 C-20.02397346 -0.8667677 -18.52009011 -0.89270339 -17.01624298 -0.92053413 C-14.90963718 -0.9592012 -12.80302687 -0.99123777 -10.69628906 -1.02172852 C-8.89759369 -1.05170677 -8.89759369 -1.05170677 -7.06256104 -1.08229065 C-4.48846414 -1.01312497 -2.43900945 -0.76902078 0 0 Z " fill="#CFCFCF" transform="translate(394,326)"/>
<path d="M0 0 C1 3 1 3 -0.4375 6.1875 C-1.2109375 7.5796875 -1.2109375 7.5796875 -2 9 C-6.8453054 7.21488748 -8.97643803 5.12303905 -12 1 C-11.236875 0.855625 -10.47375 0.71125 -9.6875 0.5625 C-2.40458015 -0.96183206 -2.40458015 -0.96183206 0 0 Z " fill="#101010" transform="translate(676,410)"/>
<path d="M0 0 C0.33 0 0.66 0 1 0 C1.33 6.93 1.66 13.86 2 21 C3.98 18.69 5.96 16.38 8 14 C8.33 15.32 8.66 16.64 9 18 C8.34 18.66 7.68 19.32 7 20 C6.28591666 21.98356483 5.61382258 23.98315437 5 26 C3.35 25.67 1.7 25.34 0 25 C0 16.75 0 8.5 0 0 Z " fill="#373737" transform="translate(809,454)"/>
<path d="M0 0 C4.455 0.99 4.455 0.99 9 2 C9 2.66 9 3.32 9 4 C9.99 4.33 10.98 4.66 12 5 C11.34 6.32 10.68 7.64 10 9 C8.70590711 8.38003922 7.41480327 7.75383647 6.125 7.125 C5.40570312 6.77695312 4.68640625 6.42890625 3.9453125 6.0703125 C2 5 2 5 0 3 C0 2.01 0 1.02 0 0 Z " fill="#121212" transform="translate(684,576)"/>
<path d="M0 0 C0.66 0.66 1.32 1.32 2 2 C0.49467105 6.51598685 -2.98818421 8.62262859 -6.5546875 11.6484375 C-9.10710731 13.87706821 -9.10710731 13.87706821 -10.5703125 16.7890625 C-11.04210937 17.51867187 -11.51390625 18.24828125 -12 19 C-16 19 -16 19 -18 18 C-17.34773437 17.50371094 -16.69546875 17.00742187 -16.0234375 16.49609375 C-9.67572446 11.56210441 -4.4600838 6.6901257 0 0 Z " fill="#D8D8D8" transform="translate(832,755)"/>
<path d="M0 0 C1 3 1 3 0.14453125 5.33984375 C-4.28049364 13.96929111 -4.28049364 13.96929111 -8 17 C-9.04449911 13.86650268 -8.93423645 13.01031744 -8 10 C-7.01 10 -6.02 10 -5 10 C-4.731875 9.278125 -4.46375 8.55625 -4.1875 7.8125 C-3.01017502 5.02409874 -1.60854116 2.55904276 0 0 Z " fill="#EDEDED" transform="translate(657,725)"/>
<path d="M0 0 C2.55687669 0.34552388 4.57501375 0.75087013 6.8125 2.0625 C8.7634059 5.24555699 8.1807718 8.32430673 8 12 C4.3392481 10.77974937 4.07660559 9.873509 2.3125 6.5625 C1.87550781 5.75941406 1.43851563 4.95632813 0.98828125 4.12890625 C0 2 0 2 0 0 Z " fill="#EFEFEF" transform="translate(736,568)"/>
<path d="M0 0 C0.33 0 0.66 0 1 0 C1.05898369 3.45825936 1.09392131 6.9163862 1.125 10.375 C1.15013672 11.82326172 1.15013672 11.82326172 1.17578125 13.30078125 C1.21924836 19.77738043 0.53232671 25.706577 -1 32 C-1.33 32 -1.66 32 -2 32 C-2.02685412 29.68756208 -2.04632841 27.3750373 -2.0625 25.0625 C-2.07410156 23.77472656 -2.08570313 22.48695313 -2.09765625 21.16015625 C-2 18 -2 18 -1 17 C-0.76298761 14.14122091 -0.57780818 11.30116703 -0.4375 8.4375 C-0.39431641 7.63119141 -0.35113281 6.82488281 -0.30664062 5.99414062 C-0.20024738 3.99631195 -0.09959112 1.9981793 0 0 Z " fill="#AFAFAF" transform="translate(562,706)"/>
<path d="M0 0 C2.71653543 5.07086614 2.71653543 5.07086614 3 8 C1.625 9.625 1.625 9.625 0 11 C-0.33 11.66 -0.66 12.32 -1 13 C-1.99 12.67 -2.98 12.34 -4 12 C-3.33501617 7.61110675 -1.81242323 4.0188515 0 0 Z " fill="#EEEEEE" transform="translate(548,643)"/>
<path d="M0 0 C2.625 0.375 2.625 0.375 5 1 C4.1875 2.9375 4.1875 2.9375 3 5 C2.01 5.33 1.02 5.66 0 6 C0.33 6.66 0.66 7.32 1 8 C-0.32 8.33 -1.64 8.66 -3 9 C-4 7 -4 7 -3.1875 4.5 C-2 2 -2 2 0 0 Z " fill="#EEEEEE" transform="translate(259,791)"/>
<path d="M0 0 C2.875 0.25 2.875 0.25 6 1 C7.375 3.0625 7.375 3.0625 8 5 C6.68 4.67 5.36 4.34 4 4 C3.34 5.65 2.68 7.3 2 9 C1.01 8.67 0.02 8.34 -1 8 C-0.67 7.01 -0.34 6.02 0 5 C-0.33 4.01 -0.66 3.02 -1 2 C-0.67 1.34 -0.34 0.68 0 0 Z " fill="#E9E9E9" transform="translate(938,600)"/>
<path d="M0 0 C0.556875 0.226875 1.11375 0.45375 1.6875 0.6875 C1.6875 2.0075 1.6875 3.3275 1.6875 4.6875 C-0.2925 5.3475 -2.2725 6.0075 -4.3125 6.6875 C-4.6425 5.6975 -4.9725 4.7075 -5.3125 3.6875 C-5.9725 3.3575 -6.6325 3.0275 -7.3125 2.6875 C-2.88173077 -0.38942308 -2.88173077 -0.38942308 0 0 Z " fill="#E7E7E7" transform="translate(972.3125,473.3125)"/>
<path d="M0 0 C0.33 0.99 0.66 1.98 1 3 C3.01508358 3.73323796 3.01508358 3.73323796 5 4 C4.34 4 3.68 4 3 4 C3 5.98 3 7.96 3 10 C2.01 10.495 2.01 10.495 1 11 C-2.22265625 5.82421875 -2.22265625 5.82421875 -3 4 C-2.67 3.01 -2.34 2.02 -2 1 C-1.34 0.67 -0.68 0.34 0 0 Z " fill="#151515" transform="translate(907,666)"/>
<path d="M0 0 C0 3.90838866 -1.50567876 5.11594107 -4 8 C-3.34 8.33 -2.68 8.66 -2 9 C-3 11 -3 11 -6.0625 12.125 C-7.031875 12.41375 -8.00125 12.7025 -9 13 C-7.36088911 7.1265193 -5.109884 3.40658933 0 0 Z " fill="#E6E6E6" transform="translate(761,693)"/>
<path d="M0 0 C3.27286682 2.7819368 4.96427697 6.27954067 7 10 C5.35 10.33 3.7 10.66 2 11 C-1.07692308 5.70769231 -1.07692308 5.70769231 -0.6875 2.125 C-0.460625 1.42375 -0.23375 0.7225 0 0 Z " fill="#E4E4E4" transform="translate(713,748)"/>
<path d="M0 0 C-2.77280706 3.08089673 -5.06326356 4.68775452 -9 6 C-9.6875 4.1875 -9.6875 4.1875 -10 2 C-7.63939534 -2.27859594 -4.19472714 -0.87060375 0 0 Z " fill="#171717" transform="translate(256,794)"/>
<path d="M0 0 C1.67542976 0.28604898 3.34385343 0.61781233 5 1 C4.01 1.33 3.02 1.66 2 2 C2 7.61 2 13.22 2 19 C1.67 19 1.34 19 1 19 C1 14.38 1 9.76 1 5 C0.01 4.67 -0.98 4.34 -2 4 C-1 1 -1 1 0 0 Z " fill="#DEDEDE" transform="translate(587,450)"/>
<path d="M0 0 C-1 3 -1 3 -3.06640625 4.16796875 C-3.89011719 4.50441406 -4.71382812 4.84085938 -5.5625 5.1875 C-6.38878906 5.53167969 -7.21507812 5.87585938 -8.06640625 6.23046875 C-8.70449219 6.48441406 -9.34257813 6.73835937 -10 7 C-9.2890625 3.21875 -9.2890625 3.21875 -6.6875 1.25 C-4 0 -4 0 0 0 Z " fill="#121212" transform="translate(1029,570)"/>
<path d="M0 0 C0.99 0.33 1.98 0.66 3 1 C1.56111673 3.87776653 -0.7324298 5.7324298 -3 8 C-5.66180946 11.03876306 -5.66180946 11.03876306 -6 15 C-6.99 14.67 -7.98 14.34 -9 14 C-7.65070536 10.16336928 -5.92248975 7.34827431 -3.375 4.1875 C-2.42753906 3.00220703 -2.42753906 3.00220703 -1.4609375 1.79296875 C-0.97882813 1.20128906 -0.49671875 0.60960937 0 0 Z " fill="#1B1B1B" transform="translate(1037,544)"/>
<path d="M0 0 C2.31 0 4.62 0 7 0 C6.649375 0.598125 6.29875 1.19625 5.9375 1.8125 C4.66695302 4.10813214 4.66695302 4.10813214 6 7 C2.54074837 5.7508258 -0.14693203 4.32472205 -3 2 C-2.01 2 -1.02 2 0 2 C0 1.34 0 0.68 0 0 Z " fill="#ECECEC" transform="translate(805,728)"/>
<path d="M0 0 C0.99 0.33 1.98 0.66 3 1 C2.625 3.4375 2.625 3.4375 2 6 C1.01 6.495 1.01 6.495 0 7 C0 6.34 0 5.68 0 5 C-1.65 5.66 -3.3 6.32 -5 7 C-3.47793991 4.37098712 -2.15634036 2.15634036 0 0 Z " fill="#1A1A1A" transform="translate(909,718)"/>
<path d="M0 0 C0.66 0 1.32 0 2 0 C2.99 1.98 3.98 3.96 5 6 C3.35 6.33 1.7 6.66 0 7 C-0.66 6.01 -1.32 5.02 -2 4 C-1.34 2.68 -0.68 1.36 0 0 Z " fill="#E9E9E9" transform="translate(427,688)"/>
<path d="M0 0 C7.87587413 1.93181818 7.87587413 1.93181818 10 5 C10.6875 7.1875 10.6875 7.1875 11 9 C10.01 9.495 10.01 9.495 9 10 C8.60167969 9.52949219 8.20335937 9.05898438 7.79296875 8.57421875 C7.26316406 7.95160156 6.73335937 7.32898438 6.1875 6.6875 C5.66542969 6.07261719 5.14335938 5.45773437 4.60546875 4.82421875 C3.12827531 3.14575321 1.59960869 1.56117966 0 0 Z " fill="#DFDFDF" transform="translate(1003,665)"/>
<path d="M0 0 C0.66 0 1.32 0 2 0 C2 0.66 2 1.32 2 2 C3.32 1.67 4.64 1.34 6 1 C5.67 2.32 5.34 3.64 5 5 C5.99 5 6.98 5 8 5 C7.34 6.32 6.68 7.64 6 9 C3.69 7.02 1.38 5.04 -1 3 C-0.67 2.01 -0.34 1.02 0 0 Z " fill="#242424" transform="translate(725,760)"/>
<path d="M0 0 C0 1.32 0 2.64 0 4 C-4.875 3.125 -4.875 3.125 -6 2 C-7.34747084 1.76924918 -8.70377565 1.58846937 -10.0625 1.4375 C-11.361875 1.293125 -12.66125 1.14875 -14 1 C-14 0.67 -14 0.34 -14 0 C-12.04235617 -0.19456705 -10.08384679 -0.38044247 -8.125 -0.5625 C-6.48917969 -0.71912109 -6.48917969 -0.71912109 -4.8203125 -0.87890625 C-2 -1 -2 -1 0 0 Z " fill="#373737" transform="translate(966,754)"/>
<path d="M0 0 C1.875 0.1875 1.875 0.1875 4 1 C5.25 3.5625 5.25 3.5625 6 6 C4.35 6.33 2.7 6.66 1 7 C0.31292445 4.50935112 0 2.62113708 0 0 Z " fill="#141414" transform="translate(689,681)"/>
<path d="M0 0 C0.33 0 0.66 0 1 0 C1.33 3.3 1.66 6.6 2 10 C2.66 10 3.32 10 4 10 C3.6875 11.9375 3.6875 11.9375 3 14 C2.01 14.33 1.02 14.66 0 15 C-1.14229879 11.57310364 -0.90861076 9.38897782 -0.5625 5.8125 C-0.46066406 4.72582031 -0.35882812 3.63914062 -0.25390625 2.51953125 C-0.17011719 1.68808594 -0.08632813 0.85664062 0 0 Z " fill="#D7D7D7" transform="translate(891,614)"/>
<path d="M0 0 C0.99 0.66 1.98 1.32 3 2 C2.34 3.65 1.68 5.3 1 7 C0.34 7 -0.32 7 -1 7 C-1.33 7.66 -1.66 8.32 -2 9 C-2.66 7.02 -3.32 5.04 -4 3 C-2.68 2.67 -1.36 2.34 0 2 C0 1.34 0 0.68 0 0 Z " fill="#E7E7E7" transform="translate(1038,537)"/>
<path d="M0 0 C0.33 1.32 0.66 2.64 1 4 C1.65509503 6.00382009 2.31974363 8.00458132 3 10 C1.02 10.33 -0.96 10.66 -3 11 C-2.01 7.37 -1.02 3.74 0 0 Z " fill="#282828" transform="translate(1043,530)"/>
<path d="M0 0 C0.66 0.33 1.32 0.66 2 1 C1.2575 1.8971875 1.2575 1.8971875 0.5 2.8125 C-1.28276418 4.97029994 -1.28276418 4.97029994 -1 8 C-1.66 8.66 -2.32 9.32 -3 10 C-3.33 10.99 -3.66 11.98 -4 13 C-4.33 13 -4.66 13 -5 13 C-5.50477602 7.69985182 -4.20817314 5.18034682 -1 1 C-0.67 0.67 -0.34 0.34 0 0 Z " fill="#181818" transform="translate(750,401)"/>
<path d="M0 0 C0 2.83967231 -0.40267181 5.23735711 -1 8 C-1.99 7.67 -2.98 7.34 -4 7 C-6.19038423 8.37168238 -6.19038423 8.37168238 -8 10 C-8 9.01 -8 8.02 -8 7 C-7.21625 6.7525 -6.4325 6.505 -5.625 6.25 C-2.64259316 4.82980627 -2.1589951 3.99407067 -1 1 C-0.67 0.67 -0.34 0.34 0 0 Z " fill="#DBDBDB" transform="translate(979,768)"/>
<path d="M0 0 C0.763125 0.309375 1.52625 0.61875 2.3125 0.9375 C4.18789677 1.67893593 6.08684652 2.36228217 8 3 C7.34 4.32 6.68 5.64 6 7 C3.11562221 5.70700306 1.12780579 4.34058637 -1 2 C-0.67 1.34 -0.34 0.68 0 0 Z " fill="#181818" transform="translate(846,632)"/>
<path d="M0 0 C3.3 0 6.6 0 10 0 C10 0.99 10 1.98 10 3 C7.69 3.66 5.38 4.32 3 5 C2.67 4.34 2.34 3.68 2 3 C1.34 2.67 0.68 2.34 0 2 C0 1.34 0 0.68 0 0 Z " fill="#EFEFEF" transform="translate(848,593)"/>
<path d="M0 0 C3.43595166 1.52708963 6.11912454 3.59927045 9 6 C7.68 6 6.36 6 5 6 C5 6.66 5 7.32 5 8 C4.01 7.67 3.02 7.34 2 7 C1.375 5.125 1.375 5.125 1 3 C0.67 2.01 0.34 1.02 0 0 Z " fill="#E8E8E8" transform="translate(726,765)"/>
<path d="M0 0 C0.33 1.65 0.66 3.3 1 5 C-1.72949845 5.90983282 -3.22134249 6 -6 6 C-6.33 5.01 -6.66 4.02 -7 3 C-2.25 0 -2.25 0 0 0 Z " fill="#E1E1E1" transform="translate(818,697)"/>
<path d="M0 0 C0.66 0 1.32 0 2 0 C3 3 3 3 3 6 C2.071875 6.12375 2.071875 6.12375 1.125 6.25 C-1.18437567 6.81258459 -1.18437567 6.81258459 -2.25 9.0625 C-2.4975 9.701875 -2.745 10.34125 -3 11 C-2.53199289 6.94393835 -2.12046792 3.53411321 0 0 Z " fill="#D4D4D4" transform="translate(472,657)"/>
<path d="M0 0 C0.66 0.99 1.32 1.98 2 3 C-2.51617599 3.07654536 -6.59085217 3.10228696 -11 2 C-11 1.67 -11 1.34 -11 1 C-6.94835726 -0.60181225 -4.18841807 -1.5124843 0 0 Z " fill="#2E2E2E" transform="translate(987,579)"/>
<path d="M0 0 C-0.33 1.98 -0.66 3.96 -1 6 C-2.32 6.33 -3.64 6.66 -5 7 C-5.33 5.35 -5.66 3.7 -6 2 C-2.25 0 -2.25 0 0 0 Z " fill="#E1E1E1" transform="translate(838,472)"/>
<path d="M0 0 C0.33 0.66 0.66 1.32 1 2 C3.02463255 2.65213292 3.02463255 2.65213292 5 3 C2.03 5.475 2.03 5.475 -1 8 C-1.66 7.01 -2.32 6.02 -3 5 C-2.01 5 -1.02 5 0 5 C-0.2784375 4.0409375 -0.2784375 4.0409375 -0.5625 3.0625 C-0.706875 2.381875 -0.85125 1.70125 -1 1 C-0.67 0.67 -0.34 0.34 0 0 Z " fill="#141414" transform="translate(820,762)"/>
<path d="M0 0 C0.33 0 0.66 0 1 0 C1.33 5.94 1.66 11.88 2 18 C1.34 18 0.68 18 0 18 C-1.30062431 14.18483536 -0.89369853 10.72438237 -0.5625 6.75 C-0.46066406 5.48671875 -0.35882812 4.2234375 -0.25390625 2.921875 C-0.17011719 1.95765625 -0.08632813 0.9934375 0 0 Z " fill="#434343" transform="translate(606,712)"/>
<path d="M0 0 C0.33 0.66 0.66 1.32 1 2 C0.34 2 -0.32 2 -1 2 C-1 2.66 -1 3.32 -1 4 C-0.34 4.33 0.32 4.66 1 5 C-3.75 7 -3.75 7 -6 7 C-6.66 6.67 -7.32 6.34 -8 6 C-5.36 4.02 -2.72 2.04 0 0 Z " fill="#202020" transform="translate(590,665)"/>
<path d="M0 0 C0.66 0.33 1.32 0.66 2 1 C1.5 3.375 1.5 3.375 0 6 C-2.66525288 7.08241903 -5.1407915 7.49272107 -8 8 C-5.33333333 5.33333333 -2.66666667 2.66666667 0 0 Z " fill="#272727" transform="translate(444,629)"/>
<path d="M0 0 C1.32 0.33 2.64 0.66 4 1 C3.34 1.4125 2.68 1.825 2 2.25 C1.34 2.8275 0.68 3.405 0 4 C0 5.32 0 6.64 0 8 C-1.65 8 -3.3 8 -5 8 C-3.35 5.36 -1.7 2.72 0 0 Z " fill="#252525" transform="translate(942,604)"/>
<path d="M0 0 C1.32 0.99 2.64 1.98 4 3 C3.67 3.99 3.34 4.98 3 6 C0.9375 6.6875 0.9375 6.6875 -1 7 C-1 3 -1 3 0 0 Z " fill="#F6F6F6" transform="translate(939,561)"/>
<path d="M0 0 C0 1.98 0 3.96 0 6 C0.66 6.33 1.32 6.66 2 7 C0.35 7.33 -1.3 7.66 -3 8 C-3.6875 5.6875 -3.6875 5.6875 -4 3 C-1.72413793 0 -1.72413793 0 0 0 Z " fill="#080808" transform="translate(630,448)"/>
<path d="M0 0 C1.32 0.66 2.64 1.32 4 2 C3.34 3.98 2.68 5.96 2 8 C0.4375 6.8125 0.4375 6.8125 -1 5 C-0.6875 2.3125 -0.6875 2.3125 0 0 Z " fill="#EBEBEB" transform="translate(426,744)"/>
<path d="M0 0 C1.65 1.65 3.3 3.3 5 5 C2.625 5.625 2.625 5.625 0 6 C-0.66 5.34 -1.32 4.68 -2 4 C-2 3.01 -2 2.02 -2 1 C-1.34 0.67 -0.68 0.34 0 0 Z " fill="#161616" transform="translate(756,738)"/>
<path d="M0 0 C2.31 0.33 4.62 0.66 7 1 C6.67 2.32 6.34 3.64 6 5 C4.35 4.67 2.7 4.34 1 4 C0.67 2.68 0.34 1.36 0 0 Z " fill="#161616" transform="translate(457,707)"/>
<path d="M0 0 C2.14208427 3.2131264 2.59687808 5.21065397 3 9 C2.67 9.66 2.34 10.32 2 11 C1.34 11 0.68 11 0 11 C-0.38133299 9.0085944 -0.71325582 7.00720923 -1 5 C-0.67 4.67 -0.34 4.34 0 4 C0 2.68 0 1.36 0 0 Z " fill="#222222" transform="translate(698,693)"/>
<path d="M0 0 C0 1.32 0 2.64 0 4 C-1.98 4.66 -3.96 5.32 -6 6 C-6.66 5.01 -7.32 4.02 -8 3 C-2.25 0 -2.25 0 0 0 Z " fill="#E2E2E2" transform="translate(626,689)"/>
<path d="M0 0 C2.64 1.98 5.28 3.96 8 6 C7.67 6.66 7.34 7.32 7 8 C4.24542282 7.62005832 3.17979426 7.1926367 1.25 5.125 C0 3 0 3 0 0 Z " fill="#0F0F0F" transform="translate(816,664)"/>
<path d="M0 0 C0.66 0.33 1.32 0.66 2 1 C2 2.98 2 4.96 2 7 C1.34 7 0.68 7 0 7 C-1.63676257 8.9600281 -1.63676257 8.9600281 -3 11 C-2.44894091 7.0507432 -1.61064629 3.65079826 0 0 Z " fill="#2A2A2A" transform="translate(428,648)"/>
<path d="M0 0 C2.97 0.495 2.97 0.495 6 1 C6 1.66 6 2.32 6 3 C5.01 3 4.02 3 3 3 C3 3.66 3 4.32 3 5 C2.01 4.67 1.02 4.34 0 4 C0 2.68 0 1.36 0 0 Z " fill="#EDEDED" transform="translate(444,777)"/>
<path d="M0 0 C2 3 2 3 1.625 5.1875 C1.41875 5.785625 1.2125 6.38375 1 7 C0.01 7 -0.98 7 -2 7 C-2 6.34 -2 5.68 -2 5 C-2.99 5 -3.98 5 -5 5 C-3.35 3.35 -1.7 1.7 0 0 Z " fill="#202020" transform="translate(581,672)"/>
<path d="M0 0 C1.65 1.32 3.3 2.64 5 4 C4.01 5.485 4.01 5.485 3 7 C1.68 6.34 0.36 5.68 -1 5 C-0.67 3.35 -0.34 1.7 0 0 Z " fill="#181818" transform="translate(675,665)"/>
<path d="M0 0 C2.475 0.99 2.475 0.99 5 2 C4.34 3.32 3.68 4.64 3 6 C1.68 5.67 0.36 5.34 -1 5 C-0.67 3.35 -0.34 1.7 0 0 Z " fill="#151515" transform="translate(537,657)"/>
<path d="M0 0 C0.99 0.99 1.98 1.98 3 3 C0.69 4.32 -1.62 5.64 -4 7 C-4 5.68 -4 4.36 -4 3 C-2 1.25 -2 1.25 0 0 Z " fill="#141414" transform="translate(965,472)"/>
<path d="M0 0 C2 3 2 3 1.625 5.1875 C1.41875 5.785625 1.2125 6.38375 1 7 C-0.65 7.33 -2.3 7.66 -4 8 C-2.87548273 5.0280615 -1.77706209 2.66559313 0 0 Z " fill="#161616" transform="translate(302,338)"/>
<path d="M0 0 C1.65 0 3.3 0 5 0 C5 1.32 5 2.64 5 4 C4.34 4.66 3.68 5.32 3 6 C2.34 5.67 1.68 5.34 1 5 C0.375 2.4375 0.375 2.4375 0 0 Z " fill="#111111" transform="translate(257,784)"/>
<path d="M0 0 C0.66 0 1.32 0 2 0 C2.66 1.32 3.32 2.64 4 4 C2.02 4.99 2.02 4.99 0 6 C-0.66 4.68 -1.32 3.36 -2 2 C-1.34 1.34 -0.68 0.68 0 0 Z " fill="#EBEBEB" transform="translate(540,769)"/>
<path d="M0 0 C0.33 0 0.66 0 1 0 C1.144375 1.2375 1.28875 2.475 1.4375 3.75 C1.78688502 6.56504499 2.20379366 9.2701497 3 12 C2.34 12 1.68 12 1 12 C0.34 12.66 -0.32 13.32 -1 14 C-0.67 9.38 -0.34 4.76 0 0 Z " fill="#DDDDDD" transform="translate(703,714)"/>
<path d="M0 0 C0.66 0.33 1.32 0.66 2 1 C1.67 2.32 1.34 3.64 1 5 C0.34 5 -0.32 5 -1 5 C-1.33 5.66 -1.66 6.32 -2 7 C-4.0625 8.125 -4.0625 8.125 -6 9 C-4.47291037 5.56404834 -2.40072955 2.88087546 0 0 Z " fill="#202020" transform="translate(725,671)"/>
<path d="M0 0 C0.66 0.33 1.32 0.66 2 1 C1.75 2.875 1.75 2.875 1 5 C-1.0625 6.25 -1.0625 6.25 -3 7 C-3.1875 4.625 -3.1875 4.625 -3 2 C-2.01 1.34 -1.02 0.68 0 0 Z " fill="#131313" transform="translate(734,665)"/>
<path d="M0 0 C1.65 0.99 3.3 1.98 5 3 C4.67 3.99 4.34 4.98 4 6 C1.53199953 4.84826645 -0.04783565 3.95216435 -2 2 C-1.34 1.34 -0.68 0.68 0 0 Z " fill="#0D0D0D" transform="translate(1002,665)"/>
<path d="M0 0 C0.33 0.66 0.66 1.32 1 2 C0.05988318 3.70116376 -0.94895617 5.36504293 -2 7 C-2.68096422 8.32608822 -3.35330586 9.65686601 -4 11 C-4.66 11 -5.32 11 -6 11 C-4.54955729 6.89041233 -2.48889248 3.56741255 0 0 Z " fill="#2E2E2E" transform="translate(435,637)"/>
<path d="M0 0 C2.31 0 4.62 0 7 0 C7.33 0.99 7.66 1.98 8 3 C8.66 3.33 9.32 3.66 10 4 C5.66905042 4 3.72965139 3.03435531 0 1 C0 0.67 0 0.34 0 0 Z " fill="#D1D1D1" transform="translate(1021,458)"/>
<path d="M0 0 C1.65 0.33 3.3 0.66 5 1 C3.35 2.65 1.7 4.3 0 6 C0 5.34 0 4.68 0 4 C-0.66 3.67 -1.32 3.34 -2 3 C-1.34 2.01 -0.68 1.02 0 0 Z " fill="#0F0F0F" transform="translate(764,417)"/>
<path d="M0 0 C2.31 0.66 4.62 1.32 7 2 C6.67 2.66 6.34 3.32 6 4 C5.34 4 4.68 4 4 4 C4 4.66 4 5.32 4 6 C1.2160817 4.60804085 1.02101003 2.84424221 0 0 Z " fill="#F1F1F1" transform="translate(916,776)"/>
<path d="M0 0 C1.32 0.33 2.64 0.66 4 1 C4 1.66 4 2.32 4 3 C3.34 3 2.68 3 2 3 C2.33 3.99 2.66 4.98 3 6 C2.01 6 1.02 6 0 6 C-0.66 5.01 -1.32 4.02 -2 3 C-1.34 2.01 -0.68 1.02 0 0 Z " fill="#111111" transform="translate(908,763)"/>
<path d="M0 0 C0.33 0.66 0.66 1.32 1 2 C1.66 2.33 2.32 2.66 3 3 C1.35 4.98 -0.3 6.96 -2 9 C-2.33 8.34 -2.66 7.68 -3 7 C-2.33333333 5.66666667 -1.66666667 4.33333333 -1 3 C-1.33 2.34 -1.66 1.68 -2 1 C-1.34 0.67 -0.68 0.34 0 0 Z " fill="#E0E0E0" transform="translate(836,746)"/>
<path d="M0 0 C-7.42857143 3.28571429 -7.42857143 3.28571429 -11 4 C-11.33 3.34 -11.66 2.68 -12 2 C-10.75579353 1.4654744 -9.50429064 0.94791389 -8.25 0.4375 C-7.55390625 0.14746094 -6.8578125 -0.14257812 -6.140625 -0.44140625 C-3.69987216 -1.07831803 -2.3596345 -0.80248831 0 0 Z " fill="#3B3B3B" transform="translate(978,455)"/>
<path d="M0 0 C0.66 0.33 1.32 0.66 2 1 C2.625 3.5625 2.625 3.5625 3 6 C2.01 6.33 1.02 6.66 0 7 C-0.66 6.34 -1.32 5.68 -2 5 C-1.46428571 1.46428571 -1.46428571 1.46428571 0 0 Z " fill="#0B0B0B" transform="translate(539,763)"/>
<path d="M0 0 C2.475 0.99 2.475 0.99 5 2 C4.67 3.32 4.34 4.64 4 6 C2.68 5.34 1.36 4.68 0 4 C0 2.68 0 1.36 0 0 Z " fill="#252525" transform="translate(422,763)"/>
<path d="M0 0 C0.66 1.32 1.32 2.64 2 4 C0.35 5.32 -1.3 6.64 -3 8 C-3.33 7.01 -3.66 6.02 -4 5 C-3.01 4.67 -2.02 4.34 -1 4 C-0.26676204 1.98491642 -0.26676204 1.98491642 0 0 Z " fill="#E6E6E6" transform="translate(513,736)"/>
<path d="M0 0 C3.465 1.485 3.465 1.485 7 3 C6.67 3.99 6.34 4.98 6 6 C4.125 5.8125 4.125 5.8125 2 5 C0.75 2.4375 0.75 2.4375 0 0 Z " fill="#181818" transform="translate(443,736)"/>
<path d="M0 0 C0.99 0.66 1.98 1.32 3 2 C2.01 3.98 1.02 5.96 0 8 C-0.33 7.01 -0.66 6.02 -1 5 C-1.66 4.67 -2.32 4.34 -3 4 C-2.01 2.68 -1.02 1.36 0 0 Z " fill="#E5E5E5" transform="translate(903,720)"/>
<path d="M0 0 C0.66 0 1.32 0 2 0 C2 0.99 2 1.98 2 3 C3.32 3 4.64 3 6 3 C5.67 3.99 5.34 4.98 5 6 C1.535 4.02 1.535 4.02 -2 2 C-1.34 1.34 -0.68 0.68 0 0 Z " fill="#1F1F1F" transform="translate(442,700)"/>
<path d="M0 0 C2.52588702 2.36292656 3.88820837 3.66462511 5 7 C2 7 2 7 0.25 5.75 C-1 4 -1 4 -0.6875 1.8125 C-0.460625 1.214375 -0.23375 0.61625 0 0 Z " fill="#E0E0E0" transform="translate(651,696)"/>
<path d="M0 0 C2 1 2 1 3.125 4.0625 C3.41375 5.031875 3.7025 6.00125 4 7 C2.68 7.99 1.36 8.98 0 10 C0.185625 9.46375 0.37125 8.9275 0.5625 8.375 C1.11419324 5.38009386 0.60597444 2.96254171 0 0 Z " fill="#E4E4E4" transform="translate(913,688)"/>
<path d="M0 0 C0 3.10551666 -0.5393715 4.35261084 -2 7 C-3.32 6.67 -4.64 6.34 -6 6 C-4 4 -2 2 0 0 Z " fill="#D9D9D9" transform="translate(617,693)"/>
<path d="M0 0 C0.66 0.66 1.32 1.32 2 2 C1.01 3.98 0.02 5.96 -1 8 C-1.99 7.34 -2.98 6.68 -4 6 C-2.89131683 3.78263366 -1.50559539 1.96382007 0 0 Z " fill="#131313" transform="translate(470,657)"/>
<path d="M0 0 C0.99 0.99 1.98 1.98 3 3 C2.34 4.32 1.68 5.64 1 7 C0.01 6.67 -0.98 6.34 -2 6 C-1.34 4.02 -0.68 2.04 0 0 Z " fill="#DCDCDC" transform="translate(556,750)"/>
<path d="M0 0 C0.99 0.33 1.98 0.66 3 1 C2.34 2.32 1.68 3.64 1 5 C-0.32 4.34 -1.64 3.68 -3 3 C-2.01 2.01 -1.02 1.02 0 0 Z " fill="#EBEBEB" transform="translate(445,732)"/>
<path d="M0 0 C-0.33 0.99 -0.66 1.98 -1 3 C-3.31 2.34 -5.62 1.68 -8 1 C-4.93251126 -0.86240388 -3.40254489 -1.2151946 0 0 Z " fill="#292929" transform="translate(510,722)"/>
<path d="M0 0 C0.99 0.33 1.98 0.66 3 1 C1.35 2.65 -0.3 4.3 -2 6 C-2.99 5.01 -3.98 4.02 -5 3 C-3.35 2.67 -1.7 2.34 0 2 C0 1.34 0 0.68 0 0 Z " fill="#E7E7E7" transform="translate(1029,609)"/>
<path d="M0 0 C1.98 0.66 3.96 1.32 6 2 C3.33440687 3.77706209 0.9719385 4.87548273 -2 6 C-1.34 4.02 -0.68 2.04 0 0 Z " fill="#131313" transform="translate(700,569)"/>
<path d="M0 0 C0 3 0 3 -1 6 C-3.5625 7.6875 -3.5625 7.6875 -6 9 C-4.68775452 5.06326356 -3.08089673 2.77280706 0 0 Z " fill="#222222" transform="translate(625,406)"/>
<path d="M0 0 C1 3 1 3 0.0625 5.1875 C-0.4634375 6.0846875 -0.4634375 6.0846875 -1 7 C-2.32 6.67 -3.64 6.34 -5 6 C-3.35 4.02 -1.7 2.04 0 0 Z " fill="#D9D9D9" transform="translate(693,752)"/>
<path d="M0 0 C0.99 0.33 1.98 0.66 3 1 C1.35 2.65 -0.3 4.3 -2 6 C-2.33 5.01 -2.66 4.02 -3 3 C-2.01 2.01 -1.02 1.02 0 0 Z " fill="#E4E4E4" transform="translate(794,737)"/>
<path d="M0 0 C0.99 0 1.98 0 3 0 C3.33 0.99 3.66 1.98 4 3 C2.35 3.66 0.7 4.32 -1 5 C-1 1 -1 1 0 0 Z " fill="#181818" transform="translate(803,700)"/>
<path d="M0 0 C0 3 0 3 -2.5 5.6875 C-3.325 6.450625 -4.15 7.21375 -5 8 C-5.66 7.67 -6.32 7.34 -7 7 C-4.78071806 4.09197539 -3.07030857 2.04687238 0 0 Z " fill="#D4D4D4" transform="translate(761,693)"/>
<path d="M0 0 C0.66 0.33 1.32 0.66 2 1 C1.21625 1.45375 0.4325 1.9075 -0.375 2.375 C-3.03698031 3.88428742 -3.03698031 3.88428742 -5 6 C-5.66 5.01 -6.32 4.02 -7 3 C-4.69631264 1.93347808 -2.35981813 0.93578995 0 0 Z " fill="#373737" transform="translate(748,658)"/>
<path d="M0 0 C2 4 2 4 2 6 C-0.5 7.625 -0.5 7.625 -3 9 C-2.01 6.03 -1.02 3.06 0 0 Z " fill="#DDDDDD" transform="translate(548,643)"/>
<path d="M0 0 C0 3.59857954 -0.95830515 5.09451118 -3 8 C-3.66 8 -4.32 8 -5 8 C-4.67 6.68 -4.34 5.36 -4 4 C-3.34 4 -2.68 4 -2 4 C-2 3.01 -2 2.02 -2 1 C-1.34 0.67 -0.68 0.34 0 0 Z " fill="#E1E1E1" transform="translate(1040,597)"/>
<path d="M0 0 C0.33 1.32 0.66 2.64 1 4 C0.38125 4.12375 -0.2375 4.2475 -0.875 4.375 C-3.19120832 4.87197356 -3.19120832 4.87197356 -5 7 C-5 6.01 -5 5.02 -5 4 C-2.5 1.8125 -2.5 1.8125 0 0 Z " fill="#EFEFEF" transform="translate(1043,560)"/>
<path d="M0 0 C-0.66 1.98 -1.32 3.96 -2 6 C-3.5 4.625 -3.5 4.625 -5 3 C-5 2.34 -5 1.68 -5 1 C-3 0 -3 0 0 0 Z " fill="#F1F1F1" transform="translate(952,497)"/>
<path d="M0 0 C2.475 0.495 2.475 0.495 5 1 C4.67 2.65 4.34 4.3 4 6 C0 1.125 0 1.125 0 0 Z " fill="#E8E8E8" transform="translate(907,476)"/>
<path d="M0 0 C2.475 0.495 2.475 0.495 5 1 C5 1.99 5 2.98 5 4 C3.35 4.33 1.7 4.66 0 5 C0 3.33333333 0 1.66666667 0 0 Z " fill="#1E1E1E" transform="translate(670,401)"/>
<path d="M0 0 C0.66 0.33 1.32 0.66 2 1 C2 4.63 2 8.26 2 12 C1.67 12 1.34 12 1 12 C0.63896464 10.18885568 0.28634496 8.37603177 -0.0625 6.5625 C-0.25972656 5.55316406 -0.45695313 4.54382813 -0.66015625 3.50390625 C-0.77230469 2.67761719 -0.88445313 1.85132813 -1 1 C-0.67 0.67 -0.34 0.34 0 0 Z " fill="#C8C8C8" transform="translate(587,402)"/>
<path d="M0 0 C0 0.66 0 1.32 0 2 C-3.3 1.67 -6.6 1.34 -10 1 C-10 0.67 -10 0.34 -10 0 C-6.33694766 -0.74926071 -3.57644848 -1.2380014 0 0 Z " fill="#DCDCDC" transform="translate(394,326)"/>
</svg>
